<svg width="1240" height="840" viewBox="0 0 1240 840" fill="none" xmlns="http://www.w3.org/2000/svg" role="img" aria-label="OpenGraphite editor preview">
  <rect width="1240" height="840" rx="44" fill="#F9FAFB"/>
  <rect x="36" y="36" width="1168" height="768" rx="28" fill="#FFFFFF" stroke="#DDE3E8" stroke-width="2"/>
  <rect x="36" y="36" width="1168" height="58" rx="28" fill="#EEF2F4"/>
  <circle cx="78" cy="65" r="9" fill="#FF6A55"/>
  <circle cx="108" cy="65" r="9" fill="#FFCA4F"/>
  <circle cx="138" cy="65" r="9" fill="#39C77B"/>
  <rect x="66" y="126" width="230" height="642" rx="18" fill="#F4F6F7" stroke="#E2E7EB"/>
  <rect x="92" y="158" width="82" height="12" rx="6" fill="#1B2026"/>
  <rect x="92" y="198" width="162" height="18" rx="9" fill="#D8E0E5"/>
  <rect x="114" y="236" width="128" height="14" rx="7" fill="#C4CDD4"/>
  <rect x="114" y="270" width="92" height="14" rx="7" fill="#C4CDD4"/>
  <rect x="114" y="304" width="142" height="14" rx="7" fill="#C4CDD4"/>
  <rect x="92" y="372" width="78" height="12" rx="6" fill="#1B2026"/>
  <rect x="114" y="410" width="154" height="14" rx="7" fill="#0F9F8F"/>
  <rect x="136" y="446" width="112" height="14" rx="7" fill="#C4CDD4"/>
  <rect x="136" y="482" width="132" height="14" rx="7" fill="#C4CDD4"/>
  <rect x="326" y="126" width="568" height="642" rx="22" fill="#EAF8F3"/>
  <rect x="376" y="176" width="468" height="542" rx="24" fill="url(#paint0_linear)" stroke="#D7E5DF"/>
  <rect x="416" y="224" width="124" height="12" rx="6" fill="#0F9F8F"/>
  <rect x="416" y="260" width="276" height="38" rx="10" fill="#1B2026"/>
  <rect x="416" y="314" width="226" height="38" rx="10" fill="#1B2026"/>
  <rect x="416" y="382" width="340" height="16" rx="8" fill="#7B8790"/>
  <rect x="416" y="412" width="292" height="16" rx="8" fill="#7B8790"/>
  <rect x="416" y="472" width="126" height="46" rx="12" fill="#0F9F8F"/>
  <rect x="558" y="472" width="126" height="46" rx="12" fill="#FFFFFF" stroke="#CAD5DD"/>
  <rect x="416" y="586" width="96" height="86" rx="18" fill="#FFFFFF" stroke="#D7E1E7"/>
  <rect x="534" y="586" width="96" height="86" rx="18" fill="#FFFFFF" stroke="#D7E1E7"/>
  <rect x="652" y="586" width="96" height="86" rx="18" fill="#FFFFFF" stroke="#D7E1E7"/>
  <rect x="924" y="126" width="250" height="642" rx="18" fill="#F4F6F7" stroke="#E2E7EB"/>
  <rect x="952" y="158" width="92" height="12" rx="6" fill="#1B2026"/>
  <rect x="952" y="205" width="82" height="12" rx="6" fill="#74808A"/>
  <rect x="952" y="230" width="168" height="30" rx="8" fill="#FFFFFF" stroke="#DDE5EA"/>
  <rect x="952" y="286" width="92" height="12" rx="6" fill="#74808A"/>
  <rect x="952" y="311" width="168" height="30" rx="8" fill="#FFFFFF" stroke="#DDE5EA"/>
  <rect x="952" y="367" width="96" height="12" rx="6" fill="#74808A"/>
  <rect x="952" y="392" width="168" height="30" rx="8" fill="#FFFFFF" stroke="#DDE5EA"/>
  <rect x="952" y="448" width="108" height="12" rx="6" fill="#74808A"/>
  <rect x="952" y="473" width="168" height="30" rx="8" fill="#FFFFFF" stroke="#DDE5EA"/>
  <defs>
    <linearGradient id="paint0_linear" x1="376" y1="176" x2="844" y2="718" gradientUnits="userSpaceOnUse">
      <stop stop-color="#FFFFFF"/>
      <stop offset="0.62" stop-color="#E6FBF5"/>
      <stop offset="1" stop-color="#FFF4D8"/>
    </linearGradient>
  </defs>
</svg>
