<svg width="1240" height="840" viewBox="0 0 1240 840" fill="none" xmlns="http://www.w3.org/2000/svg" role="img" aria-label="OpenGraphite editor preview">
  <rect width="1240" height="840" rx="20" fill="#151514"/>
  <rect x="36" y="36" width="1168" height="768" rx="10" fill="#1B1B19" stroke="#3E3B35" stroke-width="2"/>
  <rect x="36" y="36" width="1168" height="58" rx="10" fill="#24231F"/>
  <circle cx="78" cy="65" r="9" fill="#6D665C"/>
  <circle cx="108" cy="65" r="9" fill="#8A8378"/>
  <circle cx="138" cy="65" r="9" fill="#B8B0A3"/>
  <rect x="66" y="126" width="230" height="642" rx="8" fill="#20201E" stroke="#3A3833"/>
  <rect x="92" y="158" width="82" height="12" rx="3" fill="#E7DFD2"/>
  <rect x="92" y="198" width="162" height="18" rx="4" fill="#37342F"/>
  <rect x="114" y="236" width="128" height="14" rx="3" fill="#5B554D"/>
  <rect x="114" y="270" width="92" height="14" rx="3" fill="#5B554D"/>
  <rect x="114" y="304" width="142" height="14" rx="3" fill="#5B554D"/>
  <rect x="92" y="372" width="78" height="12" rx="3" fill="#E7DFD2"/>
  <rect x="114" y="410" width="154" height="14" rx="3" fill="#B8B0A3"/>
  <rect x="136" y="446" width="112" height="14" rx="3" fill="#5B554D"/>
  <rect x="136" y="482" width="132" height="14" rx="3" fill="#5B554D"/>
  <rect x="326" y="126" width="568" height="642" rx="8" fill="#171716"/>
  <rect x="376" y="176" width="468" height="542" rx="8" fill="#1F1F1D" stroke="#3E3B35"/>
  <rect x="416" y="224" width="124" height="12" rx="3" fill="#B8B0A3"/>
  <rect x="416" y="260" width="276" height="38" rx="4" fill="#E7DFD2"/>
  <rect x="416" y="314" width="226" height="38" rx="4" fill="#E7DFD2"/>
  <rect x="416" y="382" width="340" height="16" rx="3" fill="#A8A197"/>
  <rect x="416" y="412" width="292" height="16" rx="3" fill="#A8A197"/>
  <rect x="416" y="472" width="126" height="46" rx="4" fill="#E7DFD2"/>
  <rect x="558" y="472" width="126" height="46" rx="4" fill="#24231F" stroke="#5B554D"/>
  <rect x="416" y="586" width="96" height="86" rx="6" fill="#24231F" stroke="#3E3B35"/>
  <rect x="534" y="586" width="96" height="86" rx="6" fill="#24231F" stroke="#3E3B35"/>
  <rect x="652" y="586" width="96" height="86" rx="6" fill="#24231F" stroke="#3E3B35"/>
  <rect x="924" y="126" width="250" height="642" rx="8" fill="#20201E" stroke="#3A3833"/>
  <rect x="952" y="158" width="92" height="12" rx="3" fill="#E7DFD2"/>
  <rect x="952" y="205" width="82" height="12" rx="3" fill="#8A8378"/>
  <rect x="952" y="230" width="168" height="30" rx="4" fill="#1B1B19" stroke="#3A3833"/>
  <rect x="952" y="286" width="92" height="12" rx="3" fill="#8A8378"/>
  <rect x="952" y="311" width="168" height="30" rx="4" fill="#1B1B19" stroke="#3A3833"/>
  <rect x="952" y="367" width="96" height="12" rx="3" fill="#8A8378"/>
  <rect x="952" y="392" width="168" height="30" rx="4" fill="#1B1B19" stroke="#3A3833"/>
  <rect x="952" y="448" width="108" height="12" rx="3" fill="#8A8378"/>
  <rect x="952" y="473" width="168" height="30" rx="4" fill="#1B1B19" stroke="#3A3833"/>
</svg>
